<svg width="42" height="18" viewBox="0 0 42 18" fill="none" xmlns="http://www.w3.org/2000/svg">
<rect width="42" height="18" fill="#202327"/>
<path d="M11.75 10.5C12.5784 10.5 13.25 9.82843 13.25 9C13.25 8.17157 12.5784 7.5 11.75 7.5C10.9216 7.5 10.25 8.17157 10.25 9C10.25 9.82843 10.9216 10.5 11.75 10.5Z" fill="#6E767D"/>
<path d="M17 10.5C17.8284 10.5 18.5 9.82843 18.5 9C18.5 8.17157 17.8284 7.5 17 7.5C16.1716 7.5 15.5 8.17157 15.5 9C15.5 9.82843 16.1716 10.5 17 10.5Z" fill="#6E767D"/>
<path d="M22.25 10.5C23.0784 10.5 23.75 9.82843 23.75 9C23.75 8.17157 23.0784 7.5 22.25 7.5C21.4216 7.5 20.75 8.17157 20.75 9C20.75 9.82843 21.4216 10.5 22.25 10.5Z" fill="#6E767D"/>
</svg>
